<svg width="524" height="405" viewBox="0 0 524 405" fill="none" xmlns="http://www.w3.org/2000/svg">
<g opacity="0.34" filter="url(#filter0_f_3_309)">
<path d="M305.599 -58.1799L262.136 213.261L283.867 -58.1799H305.599Z" fill="#4630EB"/>
</g>
<g opacity="0.56" filter="url(#filter1_f_3_309)">
<path d="M146.097 -59L262.956 212.441L133.386 -59H146.097Z" fill="#4630EB"/>
</g>
<g opacity="0.56" filter="url(#filter2_f_3_309)">
<path d="M261.726 210.391C261.576 209.567 261.422 206.566 261.264 201.766L247.375 -57.3599H258.036C258.641 19.0375 260.04 164.526 261.264 201.766L261.726 210.391Z" fill="#4630EB"/>
</g>
<g opacity="0.56" filter="url(#filter3_f_3_309)">
<path d="M196.121 -58.1799L262.136 210.391L190.791 -58.1799H196.121Z" fill="#EA4AAA"/>
</g>
<g opacity="0.3" filter="url(#filter4_f_3_309)">
<path d="M-330.77 2.50476L262.136 211.211L-330.77 32.027V2.50476Z" fill="#4630EB"/>
</g>
<g opacity="0.56" filter="url(#filter5_f_3_309)">
<path d="M-332 309.208L262.136 211.211L-332 316.589V309.208Z" fill="#4630EB"/>
</g>
<g opacity="0.2" filter="url(#filter6_f_3_309)">
<path d="M-115.913 498.233L262.136 211.211L-58.5086 498.233H-115.913Z" fill="#4630EB"/>
</g>
<g opacity="0.56" filter="url(#filter7_f_3_309)">
<path d="M132.566 499.053L262.136 211.211L148.147 499.053H132.566Z" fill="#4630EB"/>
</g>
<g opacity="0.56" filter="url(#filter8_f_3_309)">
<path d="M277.307 499.053L263.366 211.211L282.638 499.053H277.307Z" fill="#4630EB"/>
</g>
<g opacity="0.56" filter="url(#filter9_f_3_309)">
<path d="M535.217 499.873L262.136 210.391L563.509 499.873H535.217Z" fill="#4630EB"/>
</g>
<g opacity="0.56" filter="url(#filter10_f_3_309)">
<path d="M855.452 237.453L262.546 211.621L855.452 226.382V237.453Z" fill="#4630EB"/>
</g>
<g opacity="0.4" filter="url(#filter11_f_3_309)">
<path d="M750.484 -57.3599L262.546 212.851L724.242 -57.3599H750.484Z" fill="#4630EB"/>
</g>
<g opacity="0.56" filter="url(#filter12_f_3_309)">
<path d="M-332 379.324L137.076 255.494L-332 368.663V379.324Z" fill="#EA4AAA"/>
</g>
<g opacity="0.2" filter="url(#filter13_f_3_309)">
<path d="M-60.5589 364.153L117.805 285.017L-48.258 373.173C-48.258 373.173 -58.9188 377.684 -62.1991 373.173C-65.4793 368.663 -60.5589 364.153 -60.5589 364.153Z" fill="#FFD33D"/>
</g>
<g opacity="0.2" filter="url(#filter14_f_3_309)">
<path d="M381.865 460.1L327.741 352.672L396.217 454.77C396.217 454.77 397.857 462.56 392.936 464.611C388.016 466.661 381.865 460.1 381.865 460.1Z" fill="white"/>
</g>
<g opacity="0.56" filter="url(#filter15_f_3_309)">
<path d="M-332 141.505L86.6424 197.68L-332 130.845V141.505Z" fill="#EA4AAA"/>
</g>
<g opacity="0.2" filter="url(#filter16_f_3_309)">
<path d="M-79.0103 -58.1799L77.6219 73.0302L-65.0692 -58.1799H-79.0103Z" fill="white"/>
</g>
<g opacity="0.56" filter="url(#filter17_f_3_309)">
<path d="M2.58594 -58.1799L169.469 123.464L14.4769 -58.1799H2.58594Z" fill="#4630EB"/>
</g>
<g opacity="0.2" filter="url(#filter18_f_3_309)">
<path d="M-18.7358 74.6704C13.93 91.8917 81.2299 127.236 89.1025 130.845L-14.2255 64.0095C-14.2255 64.0095 -21.196 62.7794 -22.8361 66.8798C-24.4763 70.9801 -18.7358 74.6704 -18.7358 74.6704Z" fill="#FFD33D"/>
</g>
<g opacity="0.56" filter="url(#filter19_f_3_309)">
<path d="M350.703 32.027L300.269 143.146L358.084 38.1775C358.084 38.1775 361.774 29.9769 358.904 27.9267C356.033 25.8765 350.703 32.027 350.703 32.027Z" fill="#EA4AAA"/>
</g>
<g opacity="0.2" filter="url(#filter20_f_3_309)">
<path d="M506.515 141.505L352.753 187.019L497.904 123.464C497.904 123.464 508.155 121.004 511.025 127.564C513.895 134.125 506.515 141.505 506.515 141.505Z" fill="#FFD33D"/>
</g>
<g opacity="0.56" filter="url(#filter21_f_3_309)">
<path d="M736.542 344.471L419.588 261.645L740.233 336.271C740.233 336.271 748.023 338.731 747.203 342.831C746.383 346.931 736.542 344.471 736.542 344.471Z" fill="#EA4AAA"/>
</g>
<g opacity="0.56" filter="url(#filter22_f_3_309)">
<path d="M630.755 -58.1799L459.361 64.8296L604.923 -58.1799H630.755Z" fill="#4630EB"/>
</g>
<g opacity="0.56" filter="url(#filter23_f_3_309)">
<path d="M163.318 500.283L219.083 338.321L175.619 500.283H163.318Z" fill="#EA4AAA"/>
</g>
<g opacity="0.32" filter="url(#filter24_f_3_309)">
<path d="M627.064 500.693L376.125 300.598L666.838 500.693H627.064Z" fill="#4630EB"/>
</g>
<g opacity="0.2" filter="url(#filter25_f_3_309)">
<path d="M588.521 168.568L416.718 195.22L583.601 155.447C583.601 155.447 595.492 154.217 596.722 159.137C597.952 164.057 588.521 168.568 588.521 168.568Z" fill="#FFD33D"/>
</g>
<g opacity="0.2" filter="url(#filter26_f_3_309)">
<path d="M371.614 241.963L342.502 232.943H377.355L371.614 241.963Z" fill="white"/>
</g>
<g opacity="0.2" filter="url(#filter27_f_3_309)">
<path d="M167.828 151.756C176.302 157.633 194.972 170.126 201.861 173.078L172.748 146.836C172.748 146.836 168.648 145.606 167.418 146.836C166.188 148.066 167.828 151.756 167.828 151.756Z" fill="#FFD33D"/>
</g>
<g opacity="0.2" filter="url(#filter28_f_3_309)">
<path d="M431.889 -11.4364L347.013 107.063L445.83 1.68464C445.83 1.68464 450.341 -7.74607 445.83 -12.2564C441.32 -16.7668 431.889 -11.4364 431.889 -11.4364Z" fill="white"/>
</g>
<defs>
<filter id="filter0_f_3_309" x="256.395" y="-63.9204" width="54.9443" height="282.922" filterUnits="userSpaceOnUse" color-interpolation-filters="sRGB">
<feFlood flood-opacity="0" result="BackgroundImageFix"/>
<feBlend mode="normal" in="SourceGraphic" in2="BackgroundImageFix" result="shape"/>
<feGaussianBlur stdDeviation="2.87022" result="effect1_foregroundBlur_3_309"/>
</filter>
<filter id="filter1_f_3_309" x="127.645" y="-64.7404" width="141.051" height="282.922" filterUnits="userSpaceOnUse" color-interpolation-filters="sRGB">
<feFlood flood-opacity="0" result="BackgroundImageFix"/>
<feBlend mode="normal" in="SourceGraphic" in2="BackgroundImageFix" result="shape"/>
<feGaussianBlur stdDeviation="2.87022" result="effect1_foregroundBlur_3_309"/>
</filter>
<filter id="filter2_f_3_309" x="241.635" y="-63.1003" width="25.832" height="279.232" filterUnits="userSpaceOnUse" color-interpolation-filters="sRGB">
<feFlood flood-opacity="0" result="BackgroundImageFix"/>
<feBlend mode="normal" in="SourceGraphic" in2="BackgroundImageFix" result="shape"/>
<feGaussianBlur stdDeviation="2.87022" result="effect1_foregroundBlur_3_309"/>
</filter>
<filter id="filter3_f_3_309" x="185.05" y="-63.9204" width="82.8266" height="280.052" filterUnits="userSpaceOnUse" color-interpolation-filters="sRGB">
<feFlood flood-opacity="0" result="BackgroundImageFix"/>
<feBlend mode="normal" in="SourceGraphic" in2="BackgroundImageFix" result="shape"/>
<feGaussianBlur stdDeviation="2.87022" result="effect1_foregroundBlur_3_309"/>
</filter>
<filter id="filter4_f_3_309" x="-336.51" y="-3.23568" width="604.387" height="220.187" filterUnits="userSpaceOnUse" color-interpolation-filters="sRGB">
<feFlood flood-opacity="0" result="BackgroundImageFix"/>
<feBlend mode="normal" in="SourceGraphic" in2="BackgroundImageFix" result="shape"/>
<feGaussianBlur stdDeviation="2.87022" result="effect1_foregroundBlur_3_309"/>
</filter>
<filter id="filter5_f_3_309" x="-337.74" y="205.47" width="605.617" height="116.859" filterUnits="userSpaceOnUse" color-interpolation-filters="sRGB">
<feFlood flood-opacity="0" result="BackgroundImageFix"/>
<feBlend mode="normal" in="SourceGraphic" in2="BackgroundImageFix" result="shape"/>
<feGaussianBlur stdDeviation="2.87022" result="effect1_foregroundBlur_3_309"/>
</filter>
<filter id="filter6_f_3_309" x="-121.654" y="205.47" width="389.53" height="298.503" filterUnits="userSpaceOnUse" color-interpolation-filters="sRGB">
<feFlood flood-opacity="0" result="BackgroundImageFix"/>
<feBlend mode="normal" in="SourceGraphic" in2="BackgroundImageFix" result="shape"/>
<feGaussianBlur stdDeviation="2.87022" result="effect1_foregroundBlur_3_309"/>
</filter>
<filter id="filter7_f_3_309" x="126.825" y="205.47" width="141.051" height="299.323" filterUnits="userSpaceOnUse" color-interpolation-filters="sRGB">
<feFlood flood-opacity="0" result="BackgroundImageFix"/>
<feBlend mode="normal" in="SourceGraphic" in2="BackgroundImageFix" result="shape"/>
<feGaussianBlur stdDeviation="2.87022" result="effect1_foregroundBlur_3_309"/>
</filter>
<filter id="filter8_f_3_309" x="257.626" y="205.47" width="30.7524" height="299.323" filterUnits="userSpaceOnUse" color-interpolation-filters="sRGB">
<feFlood flood-opacity="0" result="BackgroundImageFix"/>
<feBlend mode="normal" in="SourceGraphic" in2="BackgroundImageFix" result="shape"/>
<feGaussianBlur stdDeviation="2.87022" result="effect1_foregroundBlur_3_309"/>
</filter>
<filter id="filter9_f_3_309" x="256.395" y="204.65" width="312.854" height="300.963" filterUnits="userSpaceOnUse" color-interpolation-filters="sRGB">
<feFlood flood-opacity="0" result="BackgroundImageFix"/>
<feBlend mode="normal" in="SourceGraphic" in2="BackgroundImageFix" result="shape"/>
<feGaussianBlur stdDeviation="2.87022" result="effect1_foregroundBlur_3_309"/>
</filter>
<filter id="filter10_f_3_309" x="256.805" y="205.881" width="604.387" height="37.3129" filterUnits="userSpaceOnUse" color-interpolation-filters="sRGB">
<feFlood flood-opacity="0" result="BackgroundImageFix"/>
<feBlend mode="normal" in="SourceGraphic" in2="BackgroundImageFix" result="shape"/>
<feGaussianBlur stdDeviation="2.87022" result="effect1_foregroundBlur_3_309"/>
</filter>
<filter id="filter11_f_3_309" x="256.805" y="-63.1003" width="499.419" height="281.692" filterUnits="userSpaceOnUse" color-interpolation-filters="sRGB">
<feFlood flood-opacity="0" result="BackgroundImageFix"/>
<feBlend mode="normal" in="SourceGraphic" in2="BackgroundImageFix" result="shape"/>
<feGaussianBlur stdDeviation="2.87022" result="effect1_foregroundBlur_3_309"/>
</filter>
<filter id="filter12_f_3_309" x="-337.74" y="249.754" width="480.557" height="135.31" filterUnits="userSpaceOnUse" color-interpolation-filters="sRGB">
<feFlood flood-opacity="0" result="BackgroundImageFix"/>
<feBlend mode="normal" in="SourceGraphic" in2="BackgroundImageFix" result="shape"/>
<feGaussianBlur stdDeviation="2.87022" result="effect1_foregroundBlur_3_309"/>
</filter>
<filter id="filter13_f_3_309" x="-69.0671" y="279.276" width="192.612" height="101.642" filterUnits="userSpaceOnUse" color-interpolation-filters="sRGB">
<feFlood flood-opacity="0" result="BackgroundImageFix"/>
<feBlend mode="normal" in="SourceGraphic" in2="BackgroundImageFix" result="shape"/>
<feGaussianBlur stdDeviation="2.87022" result="effect1_foregroundBlur_3_309"/>
</filter>
<filter id="filter14_f_3_309" x="322.001" y="346.931" width="80.2187" height="123.816" filterUnits="userSpaceOnUse" color-interpolation-filters="sRGB">
<feFlood flood-opacity="0" result="BackgroundImageFix"/>
<feBlend mode="normal" in="SourceGraphic" in2="BackgroundImageFix" result="shape"/>
<feGaussianBlur stdDeviation="2.87022" result="effect1_foregroundBlur_3_309"/>
</filter>
<filter id="filter15_f_3_309" x="-337.74" y="125.104" width="430.123" height="78.3161" filterUnits="userSpaceOnUse" color-interpolation-filters="sRGB">
<feFlood flood-opacity="0" result="BackgroundImageFix"/>
<feBlend mode="normal" in="SourceGraphic" in2="BackgroundImageFix" result="shape"/>
<feGaussianBlur stdDeviation="2.87022" result="effect1_foregroundBlur_3_309"/>
</filter>
<filter id="filter16_f_3_309" x="-84.7507" y="-63.9204" width="168.113" height="142.691" filterUnits="userSpaceOnUse" color-interpolation-filters="sRGB">
<feFlood flood-opacity="0" result="BackgroundImageFix"/>
<feBlend mode="normal" in="SourceGraphic" in2="BackgroundImageFix" result="shape"/>
<feGaussianBlur stdDeviation="2.87022" result="effect1_foregroundBlur_3_309"/>
</filter>
<filter id="filter17_f_3_309" x="-3.15451" y="-63.9204" width="178.364" height="193.125" filterUnits="userSpaceOnUse" color-interpolation-filters="sRGB">
<feFlood flood-opacity="0" result="BackgroundImageFix"/>
<feBlend mode="normal" in="SourceGraphic" in2="BackgroundImageFix" result="shape"/>
<feGaussianBlur stdDeviation="2.87022" result="effect1_foregroundBlur_3_309"/>
</filter>
<filter id="filter18_f_3_309" x="-28.8713" y="58.0961" width="123.714" height="78.489" filterUnits="userSpaceOnUse" color-interpolation-filters="sRGB">
<feFlood flood-opacity="0" result="BackgroundImageFix"/>
<feBlend mode="normal" in="SourceGraphic" in2="BackgroundImageFix" result="shape"/>
<feGaussianBlur stdDeviation="2.87022" result="effect1_foregroundBlur_3_309"/>
</filter>
<filter id="filter19_f_3_309" x="294.529" y="21.7679" width="71.2084" height="127.118" filterUnits="userSpaceOnUse" color-interpolation-filters="sRGB">
<feFlood flood-opacity="0" result="BackgroundImageFix"/>
<feBlend mode="normal" in="SourceGraphic" in2="BackgroundImageFix" result="shape"/>
<feGaussianBlur stdDeviation="2.87022" result="effect1_foregroundBlur_3_309"/>
</filter>
<filter id="filter20_f_3_309" x="347.012" y="117.272" width="170.416" height="75.4877" filterUnits="userSpaceOnUse" color-interpolation-filters="sRGB">
<feFlood flood-opacity="0" result="BackgroundImageFix"/>
<feBlend mode="normal" in="SourceGraphic" in2="BackgroundImageFix" result="shape"/>
<feGaussianBlur stdDeviation="2.87022" result="effect1_foregroundBlur_3_309"/>
</filter>
<filter id="filter21_f_3_309" x="413.847" y="255.904" width="339.157" height="95.0393" filterUnits="userSpaceOnUse" color-interpolation-filters="sRGB">
<feFlood flood-opacity="0" result="BackgroundImageFix"/>
<feBlend mode="normal" in="SourceGraphic" in2="BackgroundImageFix" result="shape"/>
<feGaussianBlur stdDeviation="2.87022" result="effect1_foregroundBlur_3_309"/>
</filter>
<filter id="filter22_f_3_309" x="453.621" y="-63.9204" width="182.874" height="134.49" filterUnits="userSpaceOnUse" color-interpolation-filters="sRGB">
<feFlood flood-opacity="0" result="BackgroundImageFix"/>
<feBlend mode="normal" in="SourceGraphic" in2="BackgroundImageFix" result="shape"/>
<feGaussianBlur stdDeviation="2.87022" result="effect1_foregroundBlur_3_309"/>
</filter>
<filter id="filter23_f_3_309" x="157.578" y="332.58" width="67.245" height="173.443" filterUnits="userSpaceOnUse" color-interpolation-filters="sRGB">
<feFlood flood-opacity="0" result="BackgroundImageFix"/>
<feBlend mode="normal" in="SourceGraphic" in2="BackgroundImageFix" result="shape"/>
<feGaussianBlur stdDeviation="2.87022" result="effect1_foregroundBlur_3_309"/>
</filter>
<filter id="filter24_f_3_309" x="370.385" y="294.857" width="302.193" height="211.576" filterUnits="userSpaceOnUse" color-interpolation-filters="sRGB">
<feFlood flood-opacity="0" result="BackgroundImageFix"/>
<feBlend mode="normal" in="SourceGraphic" in2="BackgroundImageFix" result="shape"/>
<feGaussianBlur stdDeviation="2.87022" result="effect1_foregroundBlur_3_309"/>
</filter>
<filter id="filter25_f_3_309" x="410.977" y="149.569" width="191.596" height="51.3906" filterUnits="userSpaceOnUse" color-interpolation-filters="sRGB">
<feFlood flood-opacity="0" result="BackgroundImageFix"/>
<feBlend mode="normal" in="SourceGraphic" in2="BackgroundImageFix" result="shape"/>
<feGaussianBlur stdDeviation="2.87022" result="effect1_foregroundBlur_3_309"/>
</filter>
<filter id="filter26_f_3_309" x="336.762" y="227.202" width="46.3334" height="20.5016" filterUnits="userSpaceOnUse" color-interpolation-filters="sRGB">
<feFlood flood-opacity="0" result="BackgroundImageFix"/>
<feBlend mode="normal" in="SourceGraphic" in2="BackgroundImageFix" result="shape"/>
<feGaussianBlur stdDeviation="2.87022" result="effect1_foregroundBlur_3_309"/>
</filter>
<filter id="filter27_f_3_309" x="161.22" y="140.549" width="46.3808" height="38.2696" filterUnits="userSpaceOnUse" color-interpolation-filters="sRGB">
<feFlood flood-opacity="0" result="BackgroundImageFix"/>
<feBlend mode="normal" in="SourceGraphic" in2="BackgroundImageFix" result="shape"/>
<feGaussianBlur stdDeviation="2.87022" result="effect1_foregroundBlur_3_309"/>
</filter>
<filter id="filter28_f_3_309" x="341.272" y="-19.8089" width="112.303" height="132.612" filterUnits="userSpaceOnUse" color-interpolation-filters="sRGB">
<feFlood flood-opacity="0" result="BackgroundImageFix"/>
<feBlend mode="normal" in="SourceGraphic" in2="BackgroundImageFix" result="shape"/>
<feGaussianBlur stdDeviation="2.87022" result="effect1_foregroundBlur_3_309"/>
</filter>
</defs>
</svg>
