<svg width="350" height="175" viewBox="0 0 350 175" fill="none" xmlns="http://www.w3.org/2000/svg">
<g clip-path="url(#clip0_704_4681)">
<rect width="350" height="175" fill="#E6F4FE"/>
<g opacity="0.5">
<mask id="mask0_704_4681" style="mask-type:alpha" maskUnits="userSpaceOnUse" x="45" y="-25" width="260" height="260">
<path d="M175.001 234.6C231.791 234.6 263.362 234.6 283.982 213.981C304.601 193.361 304.601 161.79 304.601 105C304.601 48.2104 304.601 16.6401 283.982 -3.9798C263.362 -24.5996 231.791 -24.5996 175.001 -24.5996C118.211 -24.5996 86.641 -24.5996 66.0212 -3.9798C45.4014 16.6401 45.4014 48.2104 45.4014 105C45.4014 161.79 45.4014 193.361 66.0212 213.981C86.641 234.6 118.211 234.6 175.001 234.6Z" fill="url(#paint0_radial_704_4681)"/>
</mask>
<g mask="url(#mask0_704_4681)">
<line x1="139.941" y1="-96.6855" x2="139.941" y2="306.179" stroke="#0587F0" stroke-opacity="0.3" stroke-width="0.5"/>
<line x1="148.642" y1="-96.6855" x2="148.642" y2="306.179" stroke="#0587F0" stroke-opacity="0.3" stroke-width="0.5"/>
<line x1="157.343" y1="-96.6855" x2="157.343" y2="306.179" stroke="#0587F0" stroke-opacity="0.3" stroke-width="0.5"/>
<line x1="166.044" y1="-96.6855" x2="166.044" y2="306.179" stroke="#0587F0" stroke-opacity="0.3" stroke-width="0.5"/>
<line x1="174.746" y1="-96.6855" x2="174.746" y2="306.179" stroke="#0587F0" stroke-opacity="0.3" stroke-width="0.5"/>
<line x1="183.447" y1="-96.6855" x2="183.447" y2="306.179" stroke="#0587F0" stroke-opacity="0.3" stroke-width="0.5"/>
<line x1="192.148" y1="-96.6855" x2="192.148" y2="306.179" stroke="#0587F0" stroke-opacity="0.3" stroke-width="0.5"/>
<line x1="200.849" y1="-96.6855" x2="200.849" y2="306.179" stroke="#0587F0" stroke-opacity="0.3" stroke-width="0.5"/>
<line x1="209.55" y1="-96.6855" x2="209.55" y2="306.179" stroke="#0587F0" stroke-opacity="0.3" stroke-width="0.5"/>
<line x1="218.251" y1="-96.6855" x2="218.251" y2="306.179" stroke="#0587F0" stroke-opacity="0.3" stroke-width="0.5"/>
<line x1="226.953" y1="-96.6855" x2="226.953" y2="306.179" stroke="#0587F0" stroke-opacity="0.3" stroke-width="0.5"/>
<line x1="235.654" y1="-96.6855" x2="235.654" y2="306.179" stroke="#0587F0" stroke-opacity="0.3" stroke-width="0.5"/>
<line x1="244.355" y1="-96.6855" x2="244.355" y2="306.179" stroke="#0587F0" stroke-opacity="0.3" stroke-width="0.5"/>
<line x1="253.056" y1="-96.6855" x2="253.056" y2="306.179" stroke="#0587F0" stroke-opacity="0.3" stroke-width="0.5"/>
<line x1="261.757" y1="-96.6855" x2="261.757" y2="306.179" stroke="#0587F0" stroke-opacity="0.3" stroke-width="0.5"/>
<line x1="270.458" y1="-96.6855" x2="270.459" y2="306.179" stroke="#0587F0" stroke-opacity="0.3" stroke-width="0.5"/>
<line x1="279.16" y1="-96.6855" x2="279.16" y2="306.179" stroke="#0587F0" stroke-opacity="0.3" stroke-width="0.5"/>
<line x1="105.136" y1="-96.6855" x2="105.136" y2="306.179" stroke="#0587F0" stroke-opacity="0.3" stroke-width="0.5"/>
<line x1="113.837" y1="-96.6855" x2="113.837" y2="306.179" stroke="#0587F0" stroke-opacity="0.3" stroke-width="0.5"/>
<line x1="122.539" y1="-96.6855" x2="122.539" y2="306.179" stroke="#0587F0" stroke-opacity="0.3" stroke-width="0.5"/>
<line x1="131.24" y1="-96.6855" x2="131.24" y2="306.179" stroke="#0587F0" stroke-opacity="0.3" stroke-width="0.5"/>
<line x1="70.3315" y1="-96.6855" x2="70.3316" y2="306.179" stroke="#0587F0" stroke-opacity="0.3" stroke-width="0.5"/>
<line x1="79.0327" y1="-96.6855" x2="79.0327" y2="306.179" stroke="#0587F0" stroke-opacity="0.3" stroke-width="0.5"/>
<line x1="87.7339" y1="-96.6855" x2="87.7339" y2="306.179" stroke="#0587F0" stroke-opacity="0.3" stroke-width="0.5"/>
<line x1="96.4351" y1="-96.6855" x2="96.4351" y2="306.179" stroke="#0587F0" stroke-opacity="0.3" stroke-width="0.5"/>
<line x1="287.861" y1="-96.6855" x2="287.861" y2="306.179" stroke="#0587F0" stroke-opacity="0.3" stroke-width="0.5"/>
<line x1="296.562" y1="-96.6855" x2="296.562" y2="306.179" stroke="#0587F0" stroke-opacity="0.3" stroke-width="0.5"/>
<line x1="426.83" y1="18.4199" x2="-77.8384" y2="18.4199" stroke="#0587F0" stroke-opacity="0.3" stroke-width="0.5"/>
<line x1="426.83" y1="27.1211" x2="-77.8384" y2="27.1211" stroke="#0587F0" stroke-opacity="0.3" stroke-width="0.5"/>
<line x1="426.83" y1="35.8223" x2="-77.8384" y2="35.8223" stroke="#0587F0" stroke-opacity="0.3" stroke-width="0.5"/>
<line x1="426.83" y1="44.5234" x2="-77.8384" y2="44.5234" stroke="#0587F0" stroke-opacity="0.3" stroke-width="0.5"/>
<line x1="426.83" y1="53.2246" x2="-77.8384" y2="53.2246" stroke="#0587F0" stroke-opacity="0.3" stroke-width="0.5"/>
<line x1="426.83" y1="61.9258" x2="-77.8384" y2="61.9258" stroke="#0587F0" stroke-opacity="0.3" stroke-width="0.5"/>
<line x1="426.83" y1="70.627" x2="-77.8384" y2="70.627" stroke="#0587F0" stroke-opacity="0.3" stroke-width="0.5"/>
<line x1="426.83" y1="79.3281" x2="-77.8384" y2="79.3281" stroke="#0587F0" stroke-opacity="0.3" stroke-width="0.5"/>
<line x1="426.83" y1="88.0293" x2="-77.8384" y2="88.0293" stroke="#0587F0" stroke-opacity="0.3" stroke-width="0.5"/>
<line x1="426.83" y1="96.7305" x2="-77.8384" y2="96.7305" stroke="#0587F0" stroke-opacity="0.3" stroke-width="0.5"/>
<line x1="426.83" y1="105.432" x2="-77.8384" y2="105.432" stroke="#0587F0" stroke-opacity="0.3" stroke-width="0.5"/>
<line x1="426.83" y1="114.133" x2="-77.8384" y2="114.133" stroke="#0587F0" stroke-opacity="0.3" stroke-width="0.5"/>
<line x1="426.83" y1="122.834" x2="-77.8384" y2="122.834" stroke="#0587F0" stroke-opacity="0.3" stroke-width="0.5"/>
<line x1="426.83" y1="131.535" x2="-77.8384" y2="131.535" stroke="#0587F0" stroke-opacity="0.3" stroke-width="0.5"/>
<line x1="426.83" y1="140.236" x2="-77.8384" y2="140.236" stroke="#0587F0" stroke-opacity="0.3" stroke-width="0.5"/>
<line x1="426.83" y1="148.938" x2="-77.8384" y2="148.938" stroke="#0587F0" stroke-opacity="0.3" stroke-width="0.5"/>
<line x1="426.83" y1="157.639" x2="-77.8384" y2="157.639" stroke="#0587F0" stroke-opacity="0.3" stroke-width="0.5"/>
<line x1="426.83" y1="1.01758" x2="-77.8384" y2="1.01758" stroke="#0587F0" stroke-opacity="0.3" stroke-width="0.5"/>
<line x1="426.83" y1="9.71875" x2="-77.8384" y2="9.71875" stroke="#0587F0" stroke-opacity="0.3" stroke-width="0.5"/>
<line x1="426.83" y1="166.34" x2="-77.8384" y2="166.34" stroke="#0587F0" stroke-opacity="0.3" stroke-width="0.5"/>
<line x1="426.83" y1="175.041" x2="-77.8384" y2="175.041" stroke="#0587F0" stroke-opacity="0.3" stroke-width="0.5"/>
<line x1="70.3325" y1="14.6895" x2="70.3325" y2="22.5205" stroke="#0587F0" stroke-width="0.5"/>
<line x1="74.4331" y1="18.4199" x2="66.6021" y2="18.4199" stroke="#0587F0" stroke-width="0.5"/>
<line x1="174.747" y1="14.6895" x2="174.747" y2="22.5205" stroke="#0587F0" stroke-width="0.5"/>
<line x1="178.847" y1="18.4199" x2="171.016" y2="18.4199" stroke="#0587F0" stroke-width="0.5"/>
<line x1="209.551" y1="14.6895" x2="209.551" y2="22.5205" stroke="#0587F0" stroke-width="0.5"/>
<line x1="213.652" y1="18.4199" x2="205.821" y2="18.4199" stroke="#0587F0" stroke-width="0.5"/>
<line x1="244.356" y1="14.6895" x2="244.356" y2="22.5205" stroke="#0587F0" stroke-width="0.5"/>
<line x1="248.457" y1="18.4199" x2="240.625" y2="18.4199" stroke="#0587F0" stroke-width="0.5"/>
<line x1="279.161" y1="14.6895" x2="279.161" y2="22.5205" stroke="#0587F0" stroke-width="0.5"/>
<line x1="283.261" y1="18.4199" x2="275.43" y2="18.4199" stroke="#0587F0" stroke-width="0.5"/>
<line x1="70.3325" y1="49.4941" x2="70.3325" y2="57.3252" stroke="#0587F0" stroke-width="0.5"/>
<line x1="74.4331" y1="53.2246" x2="66.6021" y2="53.2246" stroke="#0587F0" stroke-width="0.5"/>
<line x1="174.747" y1="49.4941" x2="174.747" y2="57.3252" stroke="#0587F0" stroke-width="0.5"/>
<line x1="178.847" y1="53.2246" x2="171.016" y2="53.2246" stroke="#0587F0" stroke-width="0.5"/>
<line x1="209.551" y1="49.4941" x2="209.551" y2="57.3252" stroke="#0587F0" stroke-width="0.5"/>
<line x1="213.652" y1="53.2246" x2="205.821" y2="53.2246" stroke="#0587F0" stroke-width="0.5"/>
<line x1="244.356" y1="49.4941" x2="244.356" y2="57.3252" stroke="#0587F0" stroke-width="0.5"/>
<line x1="248.457" y1="53.2246" x2="240.625" y2="53.2246" stroke="#0587F0" stroke-width="0.5"/>
<line x1="279.161" y1="49.4941" x2="279.161" y2="57.3252" stroke="#0587F0" stroke-width="0.5"/>
<line x1="283.261" y1="53.2246" x2="275.43" y2="53.2246" stroke="#0587F0" stroke-width="0.5"/>
<line x1="70.3325" y1="84.2988" x2="70.3325" y2="92.1299" stroke="#0587F0" stroke-width="0.5"/>
<line x1="74.4331" y1="88.0293" x2="66.6021" y2="88.0293" stroke="#0587F0" stroke-width="0.5"/>
<line x1="174.747" y1="84.2988" x2="174.747" y2="92.1299" stroke="#0587F0" stroke-width="0.5"/>
<line x1="178.847" y1="88.0293" x2="171.016" y2="88.0293" stroke="#0587F0" stroke-width="0.5"/>
<line x1="209.551" y1="84.2988" x2="209.551" y2="92.1299" stroke="#0587F0" stroke-width="0.5"/>
<line x1="213.652" y1="88.0293" x2="205.821" y2="88.0293" stroke="#0587F0" stroke-width="0.5"/>
<line x1="244.356" y1="84.2988" x2="244.356" y2="92.1299" stroke="#0587F0" stroke-width="0.5"/>
<line x1="248.457" y1="88.0293" x2="240.625" y2="88.0293" stroke="#0587F0" stroke-width="0.5"/>
<line x1="279.161" y1="84.2988" x2="279.161" y2="92.1299" stroke="#0587F0" stroke-width="0.5"/>
<line x1="283.261" y1="88.0293" x2="275.43" y2="88.0293" stroke="#0587F0" stroke-width="0.5"/>
<line x1="70.3325" y1="119.104" x2="70.3325" y2="126.935" stroke="#0587F0" stroke-width="0.5"/>
<line x1="74.4331" y1="122.834" x2="66.6021" y2="122.834" stroke="#0587F0" stroke-width="0.5"/>
<line x1="174.747" y1="119.104" x2="174.747" y2="126.935" stroke="#0587F0" stroke-width="0.5"/>
<line x1="178.847" y1="122.834" x2="171.016" y2="122.834" stroke="#0587F0" stroke-width="0.5"/>
<line x1="209.551" y1="119.104" x2="209.551" y2="126.935" stroke="#0587F0" stroke-width="0.5"/>
<line x1="213.652" y1="122.834" x2="205.821" y2="122.834" stroke="#0587F0" stroke-width="0.5"/>
<line x1="244.356" y1="119.104" x2="244.356" y2="126.935" stroke="#0587F0" stroke-width="0.5"/>
<line x1="248.457" y1="122.834" x2="240.625" y2="122.834" stroke="#0587F0" stroke-width="0.5"/>
<line x1="279.161" y1="119.104" x2="279.161" y2="126.935" stroke="#0587F0" stroke-width="0.5"/>
<line x1="283.261" y1="122.834" x2="275.43" y2="122.834" stroke="#0587F0" stroke-width="0.5"/>
<line x1="70.3325" y1="153.908" x2="70.3325" y2="161.739" stroke="#0587F0" stroke-width="0.5"/>
<line x1="74.4331" y1="157.639" x2="66.6021" y2="157.639" stroke="#0587F0" stroke-width="0.5"/>
<line x1="174.747" y1="153.908" x2="174.747" y2="161.739" stroke="#0587F0" stroke-width="0.5"/>
<line x1="178.847" y1="157.639" x2="171.016" y2="157.639" stroke="#0587F0" stroke-width="0.5"/>
<line x1="209.551" y1="153.908" x2="209.551" y2="161.739" stroke="#0587F0" stroke-width="0.5"/>
<line x1="213.652" y1="157.639" x2="205.821" y2="157.639" stroke="#0587F0" stroke-width="0.5"/>
<line x1="244.356" y1="153.908" x2="244.356" y2="161.739" stroke="#0587F0" stroke-width="0.5"/>
<line x1="248.457" y1="157.639" x2="240.625" y2="157.639" stroke="#0587F0" stroke-width="0.5"/>
<line x1="279.161" y1="153.908" x2="279.161" y2="161.739" stroke="#0587F0" stroke-width="0.5"/>
<line x1="283.261" y1="157.639" x2="275.43" y2="157.639" stroke="#0587F0" stroke-width="0.5"/>
<line x1="139.942" y1="14.6895" x2="139.942" y2="22.5205" stroke="#0587F0" stroke-width="0.5"/>
<line x1="144.042" y1="18.4199" x2="136.211" y2="18.4199" stroke="#0587F0" stroke-width="0.5"/>
<line x1="139.942" y1="49.4941" x2="139.942" y2="57.3252" stroke="#0587F0" stroke-width="0.5"/>
<line x1="144.042" y1="53.2246" x2="136.211" y2="53.2246" stroke="#0587F0" stroke-width="0.5"/>
<line x1="139.942" y1="84.2988" x2="139.942" y2="92.1299" stroke="#0587F0" stroke-width="0.5"/>
<line x1="144.042" y1="88.0293" x2="136.211" y2="88.0293" stroke="#0587F0" stroke-width="0.5"/>
<line x1="139.942" y1="119.104" x2="139.942" y2="126.935" stroke="#0587F0" stroke-width="0.5"/>
<line x1="144.042" y1="122.834" x2="136.211" y2="122.834" stroke="#0587F0" stroke-width="0.5"/>
<line x1="139.942" y1="153.908" x2="139.942" y2="161.739" stroke="#0587F0" stroke-width="0.5"/>
<line x1="144.042" y1="157.639" x2="136.211" y2="157.639" stroke="#0587F0" stroke-width="0.5"/>
<line x1="105.137" y1="14.6895" x2="105.137" y2="22.5205" stroke="#0587F0" stroke-width="0.5"/>
<line x1="109.238" y1="18.4199" x2="101.407" y2="18.4199" stroke="#0587F0" stroke-width="0.5"/>
<line x1="105.137" y1="49.4941" x2="105.137" y2="57.3252" stroke="#0587F0" stroke-width="0.5"/>
<line x1="109.238" y1="53.2246" x2="101.407" y2="53.2246" stroke="#0587F0" stroke-width="0.5"/>
<line x1="105.137" y1="84.2988" x2="105.137" y2="92.1299" stroke="#0587F0" stroke-width="0.5"/>
<line x1="109.238" y1="88.0293" x2="101.407" y2="88.0293" stroke="#0587F0" stroke-width="0.5"/>
<line x1="105.137" y1="119.104" x2="105.137" y2="126.935" stroke="#0587F0" stroke-width="0.5"/>
<line x1="109.238" y1="122.834" x2="101.407" y2="122.834" stroke="#0587F0" stroke-width="0.5"/>
<line x1="105.137" y1="153.908" x2="105.137" y2="161.739" stroke="#0587F0" stroke-width="0.5"/>
<line x1="109.238" y1="157.639" x2="101.407" y2="157.639" stroke="#0587F0" stroke-width="0.5"/>
<line x1="52.9292" y1="-96.6855" x2="52.9292" y2="306.179" stroke="#0587F0" stroke-opacity="0.3" stroke-width="0.5"/>
<line x1="61.6304" y1="-96.6855" x2="61.6304" y2="306.179" stroke="#0587F0" stroke-opacity="0.3" stroke-width="0.5"/>
</g>
</g>
<g filter="url(#filter0_d_704_4681)">
<rect x="143" y="56" width="64" height="64" rx="16" fill="url(#paint1_linear_704_4681)"/>
<path fill-rule="evenodd" clip-rule="evenodd" d="M175 104.5C184.113 104.5 191.5 97.1127 191.5 88C191.5 78.8873 184.113 71.5 175 71.5C165.887 71.5 158.5 78.8873 158.5 88C158.5 97.1127 165.887 104.5 175 104.5ZM178.411 74.9347C179.857 77.1071 180.942 79.4932 181.631 82H187.097C185.379 78.5432 182.223 75.9271 178.411 74.9347ZM175 75.3262C176.56 77.3354 177.742 79.5969 178.503 82H171.497C172.258 79.5969 173.44 77.3354 175 75.3262ZM179.5 88C179.477 86.9895 179.383 85.9872 179.221 85H170.779C170.617 85.9872 170.523 86.9895 170.5 88C170.523 89.0105 170.617 90.0128 170.779 91H179.221C179.383 90.0128 179.477 89.0105 179.5 88ZM178.503 94H171.497C172.258 96.4031 173.44 98.6646 175 100.674C176.56 98.6646 177.742 96.4031 178.503 94ZM167.744 91C167.603 90.0208 167.521 89.0295 167.5 88.0312C167.5 88.0104 167.5 87.9896 167.5 87.9688C167.521 86.9705 167.603 85.9792 167.744 85H161.835C161.616 85.9648 161.5 86.9689 161.5 88C161.5 89.0311 161.616 90.0352 161.835 91H167.744ZM162.903 94H168.369C169.058 96.5068 170.143 98.8929 171.589 101.065C167.777 100.073 164.621 97.4568 162.903 94ZM181.631 94H187.097C185.379 97.4568 182.223 100.073 178.411 101.065C179.857 98.8929 180.942 96.5068 181.631 94ZM188.165 91H182.256C182.397 90.0208 182.479 89.0295 182.5 88.0312C182.5 88.0104 182.5 87.9896 182.5 87.9688C182.479 86.9705 182.397 85.9792 182.256 85H188.165C188.384 85.9648 188.5 86.9689 188.5 88C188.5 89.0311 188.384 90.0352 188.165 91ZM171.589 74.9347C170.143 77.1071 169.058 79.4932 168.369 82H162.903C164.621 78.5432 167.777 75.9271 171.589 74.9347Z" fill="#0587F0"/>
</g>
</g>
<defs>
<filter id="filter0_d_704_4681" x="129" y="46" width="92" height="92" filterUnits="userSpaceOnUse" color-interpolation-filters="sRGB">
<feFlood flood-opacity="0" result="BackgroundImageFix"/>
<feColorMatrix in="SourceAlpha" type="matrix" values="0 0 0 0 0 0 0 0 0 0 0 0 0 0 0 0 0 0 127 0" result="hardAlpha"/>
<feOffset dy="4"/>
<feGaussianBlur stdDeviation="7"/>
<feComposite in2="hardAlpha" operator="out"/>
<feColorMatrix type="matrix" values="0 0 0 0 0 0 0 0 0 0.447059 0 0 0 0 0.870588 0 0 0 0.3 0"/>
<feBlend mode="normal" in2="BackgroundImageFix" result="effect1_dropShadow_704_4681"/>
<feBlend mode="normal" in="SourceGraphic" in2="effect1_dropShadow_704_4681" result="shape"/>
</filter>
<radialGradient id="paint0_radial_704_4681" cx="0" cy="0" r="1" gradientUnits="userSpaceOnUse" gradientTransform="translate(175.001 105) rotate(90) scale(129.375)">
<stop stop-color="#505050"/>
<stop offset="1" stop-color="#B6B6B6" stop-opacity="0"/>
</radialGradient>
<linearGradient id="paint1_linear_704_4681" x1="175" y1="56" x2="175" y2="120" gradientUnits="userSpaceOnUse">
<stop stop-color="white"/>
<stop offset="1" stop-color="#E6F4FE"/>
</linearGradient>
<clipPath id="clip0_704_4681">
<rect width="350" height="175" fill="white"/>
</clipPath>
</defs>
</svg>
