<svg width="402" height="233" fill="none" xmlns="http://www.w3.org/2000/svg"><g opacity=".6"><path d="M254.296 216.381c-1.466 2.54-5.132 2.54-6.598 0l-46.188-80c-1.467-2.539.366-5.714 3.299-5.714h92.376c2.932 0 4.765 3.175 3.299 5.714l-46.188 80z" fill="#4630EB"/><path fill-rule="evenodd" clip-rule="evenodd" d="M300.484 136.381c1.466-2.539-.367-5.714-3.299-5.714h-92.376c-2.933 0-4.766 3.175-3.299 5.714l46.188 80c1.466 2.54 5.132 2.54 6.598 0l46.188-80zm-18.145 8.572c.733-1.27-.184-2.857-1.65-2.857h-59.385c-1.466 0-2.382 1.587-1.649 2.857l4.56 7.898h53.564l4.56-7.898zm-8.959 15.517h-44.766l5.717 9.903h33.331l5.718-9.903zm-24.033 35.911l-10.617-18.389h24.534l-10.618 18.389c-.733 1.27-2.566 1.27-3.299 0z" fill="#3423CA"/><path d="M354.295 100.381c-1.466 2.54-5.132 2.54-6.598 0l-46.188-80c-1.466-2.54.367-5.714 3.299-5.714h92.376c2.933 0 4.766 3.175 3.299 5.714l-46.188 80z" fill="#4630EB"/><path fill-rule="evenodd" clip-rule="evenodd" d="M400.483 20.381c1.467-2.54-.366-5.714-3.299-5.714h-92.376c-2.932 0-4.765 3.175-3.299 5.714l46.188 80c1.466 2.54 5.132 2.54 6.598 0l46.188-80zm-18.145 8.572c.733-1.27-.183-2.857-1.649-2.857h-59.385c-1.466 0-2.383 1.587-1.65 2.857l4.56 7.898h53.564l4.56-7.898zm-8.959 15.517h-44.766l5.718 9.903h33.331l5.717-9.903zm-24.032 35.91l-10.618-18.39h24.534l-10.617 18.39c-.733 1.27-2.566 1.27-3.299 0z" fill="#3423CA"/><path d="M47.705 15.619c1.466-2.54 5.132-2.54 6.598 0l46.188 80c1.466 2.54-.366 5.714-3.299 5.714H4.816c-2.933 0-4.765-3.175-3.3-5.714l46.189-80z" fill="#4630EB"/><path fill-rule="evenodd" clip-rule="evenodd" d="M1.517 95.619c-1.466 2.54.366 5.714 3.299 5.714h92.376c2.933 0 4.765-3.175 3.299-5.714l-46.188-80c-1.466-2.54-5.132-2.54-6.598 0l-46.188 80zm18.145-8.572c-.733 1.27.183 2.857 1.65 2.857h59.384c1.467 0 2.383-1.587 1.65-2.857l-4.56-7.898H24.222l-4.56 7.898zm8.959-15.517h44.766l-5.717-9.903H34.338l-5.717 9.903zm24.033-35.91l10.617 18.39H38.737l10.617-18.39c.734-1.27 2.566-1.27 3.3 0z" fill="#3423CA"/><path d="M347.704 131.619c1.466-2.54 5.132-2.54 6.598 0l46.188 80c1.467 2.539-.366 5.714-3.299 5.714h-92.376c-2.932 0-4.765-3.175-3.299-5.714l46.188-80z" fill="#4630EB"/><path fill-rule="evenodd" clip-rule="evenodd" d="M347.704 131.62c1.466-2.54 5.132-2.54 6.598 0l46.188 80c1.467 2.539-.366 5.714-3.299 5.714h-92.376c-2.932 0-4.765-3.175-3.299-5.714l46.188-80zm1.65 20c.733-1.27 2.566-1.27 3.299 0l29.692 51.428c.733 1.27-.183 2.857-1.649 2.857h-59.385c-1.466 0-2.383-1.587-1.65-2.857l29.693-51.428zm4.399 20.952c-1.222-2.116-4.277-2.116-5.499 0l-10.997 19.048c-1.222 2.116.305 4.762 2.749 4.762H362c2.444 0 3.972-2.646 2.75-4.762l-10.997-19.048z" fill="#3423CA"/><path d="M54.296 216.381c-1.466 2.54-5.132 2.54-6.598 0l-46.188-80c-1.467-2.539.366-5.714 3.299-5.714h92.376c2.932 0 4.765 3.175 3.299 5.714l-46.188 80z" fill="#4630EB"/><path fill-rule="evenodd" clip-rule="evenodd" d="M54.296 216.38c-1.466 2.54-5.132 2.54-6.598 0l-46.188-80c-1.467-2.539.366-5.714 3.299-5.714h92.376c2.932 0 4.765 3.175 3.299 5.714l-46.188 80zm-1.65-20c-.733 1.27-2.566 1.27-3.299 0l-29.692-51.428c-.733-1.27.183-2.857 1.65-2.857h59.384c1.466 0 2.383 1.587 1.65 2.857L52.646 196.38zm-4.398-20.952c1.221 2.116 4.276 2.116 5.498 0l10.997-19.048c1.222-2.116-.305-4.762-2.75-4.762H40c-2.444 0-3.972 2.646-2.75 4.762l10.998 19.048z" fill="#3423CA"/><path d="M154.296 100.381c-1.466 2.54-5.132 2.54-6.598 0l-46.188-80c-1.466-2.54.367-5.714 3.299-5.714h92.376c2.933 0 4.766 3.175 3.299 5.714l-46.188 80z" fill="#4630EB"/><path fill-rule="evenodd" clip-rule="evenodd" d="M154.296 100.38c-1.466 2.54-5.132 2.54-6.598 0l-46.188-80c-1.466-2.54.367-5.714 3.299-5.714h92.376c2.933 0 4.766 3.175 3.299 5.714l-46.188 80zm-1.649-20c-.733 1.27-2.566 1.27-3.299 0l-29.693-51.428c-.733-1.27.184-2.857 1.65-2.857h59.385c1.466 0 2.382 1.587 1.649 2.857L152.647 80.38zm-4.399-20.952c1.222 2.116 4.277 2.116 5.499 0l10.997-19.048c1.222-2.116-.306-4.762-2.75-4.762H140c-2.444 0-3.971 2.646-2.749 4.762l10.997 19.048z" fill="#3423CA"/><path d="M147.704 131.619c1.466-2.54 5.132-2.54 6.598 0l46.188 80c1.467 2.539-.366 5.714-3.299 5.714h-92.376c-2.932 0-4.765-3.175-3.299-5.714l46.188-80z" fill="#3423CA"/><path d="M149.354 151.619c.733-1.269 2.566-1.269 3.299 0l29.692 51.429c.733 1.27-.183 2.857-1.649 2.857h-59.385c-1.466 0-2.383-1.587-1.649-2.857l29.692-51.429z" fill="#4630EB"/><path d="M247.705 15.619c1.466-2.54 5.132-2.54 6.598 0l46.188 80c1.466 2.54-.367 5.714-3.299 5.714h-92.376c-2.933 0-4.766-3.175-3.299-5.714l46.188-80z" fill="#3423CA"/><path d="M249.354 35.62c.734-1.27 2.566-1.27 3.3 0l29.692 51.428c.733 1.27-.183 2.857-1.65 2.857h-59.384c-1.467 0-2.383-1.587-1.65-2.857l29.692-51.429z" fill="#4630EB"/></g></svg>