<svg width="350" height="175" viewBox="0 0 350 175" fill="none" xmlns="http://www.w3.org/2000/svg">
<g clip-path="url(#clip0_704_3193)">
<rect width="350" height="175" fill="#E6F4FE"/>
<g opacity="0.5">
<mask id="mask0_704_3193" style="mask-type:alpha" maskUnits="userSpaceOnUse" x="45" y="-25" width="260" height="260">
<path d="M175.001 234.6C231.791 234.6 263.362 234.6 283.982 213.981C304.601 193.361 304.601 161.79 304.601 105C304.601 48.2104 304.601 16.6401 283.982 -3.9798C263.362 -24.5996 231.791 -24.5996 175.001 -24.5996C118.211 -24.5996 86.641 -24.5996 66.0212 -3.9798C45.4014 16.6401 45.4014 48.2104 45.4014 105C45.4014 161.79 45.4014 193.361 66.0212 213.981C86.641 234.6 118.211 234.6 175.001 234.6Z" fill="url(#paint0_radial_704_3193)"/>
</mask>
<g mask="url(#mask0_704_3193)">
<line x1="139.941" y1="-96.6855" x2="139.941" y2="306.179" stroke="#0587F0" stroke-opacity="0.3" stroke-width="0.5"/>
<line x1="148.642" y1="-96.6855" x2="148.642" y2="306.179" stroke="#0587F0" stroke-opacity="0.3" stroke-width="0.5"/>
<line x1="157.343" y1="-96.6855" x2="157.343" y2="306.179" stroke="#0587F0" stroke-opacity="0.3" stroke-width="0.5"/>
<line x1="166.044" y1="-96.6855" x2="166.044" y2="306.179" stroke="#0587F0" stroke-opacity="0.3" stroke-width="0.5"/>
<line x1="174.746" y1="-96.6855" x2="174.746" y2="306.179" stroke="#0587F0" stroke-opacity="0.3" stroke-width="0.5"/>
<line x1="183.447" y1="-96.6855" x2="183.447" y2="306.179" stroke="#0587F0" stroke-opacity="0.3" stroke-width="0.5"/>
<line x1="192.148" y1="-96.6855" x2="192.148" y2="306.179" stroke="#0587F0" stroke-opacity="0.3" stroke-width="0.5"/>
<line x1="200.849" y1="-96.6855" x2="200.849" y2="306.179" stroke="#0587F0" stroke-opacity="0.3" stroke-width="0.5"/>
<line x1="209.55" y1="-96.6855" x2="209.55" y2="306.179" stroke="#0587F0" stroke-opacity="0.3" stroke-width="0.5"/>
<line x1="218.251" y1="-96.6855" x2="218.251" y2="306.179" stroke="#0587F0" stroke-opacity="0.3" stroke-width="0.5"/>
<line x1="226.953" y1="-96.6855" x2="226.953" y2="306.179" stroke="#0587F0" stroke-opacity="0.3" stroke-width="0.5"/>
<line x1="235.654" y1="-96.6855" x2="235.654" y2="306.179" stroke="#0587F0" stroke-opacity="0.3" stroke-width="0.5"/>
<line x1="244.355" y1="-96.6855" x2="244.355" y2="306.179" stroke="#0587F0" stroke-opacity="0.3" stroke-width="0.5"/>
<line x1="253.056" y1="-96.6855" x2="253.056" y2="306.179" stroke="#0587F0" stroke-opacity="0.3" stroke-width="0.5"/>
<line x1="261.757" y1="-96.6855" x2="261.757" y2="306.179" stroke="#0587F0" stroke-opacity="0.3" stroke-width="0.5"/>
<line x1="270.458" y1="-96.6855" x2="270.459" y2="306.179" stroke="#0587F0" stroke-opacity="0.3" stroke-width="0.5"/>
<line x1="279.16" y1="-96.6855" x2="279.16" y2="306.179" stroke="#0587F0" stroke-opacity="0.3" stroke-width="0.5"/>
<line x1="105.136" y1="-96.6855" x2="105.136" y2="306.179" stroke="#0587F0" stroke-opacity="0.3" stroke-width="0.5"/>
<line x1="113.837" y1="-96.6855" x2="113.837" y2="306.179" stroke="#0587F0" stroke-opacity="0.3" stroke-width="0.5"/>
<line x1="122.539" y1="-96.6855" x2="122.539" y2="306.179" stroke="#0587F0" stroke-opacity="0.3" stroke-width="0.5"/>
<line x1="131.24" y1="-96.6855" x2="131.24" y2="306.179" stroke="#0587F0" stroke-opacity="0.3" stroke-width="0.5"/>
<line x1="70.3315" y1="-96.6855" x2="70.3316" y2="306.179" stroke="#0587F0" stroke-opacity="0.3" stroke-width="0.5"/>
<line x1="79.0327" y1="-96.6855" x2="79.0327" y2="306.179" stroke="#0587F0" stroke-opacity="0.3" stroke-width="0.5"/>
<line x1="87.7339" y1="-96.6855" x2="87.7339" y2="306.179" stroke="#0587F0" stroke-opacity="0.3" stroke-width="0.5"/>
<line x1="96.4351" y1="-96.6855" x2="96.4351" y2="306.179" stroke="#0587F0" stroke-opacity="0.3" stroke-width="0.5"/>
<line x1="287.861" y1="-96.6855" x2="287.861" y2="306.179" stroke="#0587F0" stroke-opacity="0.3" stroke-width="0.5"/>
<line x1="296.562" y1="-96.6855" x2="296.562" y2="306.179" stroke="#0587F0" stroke-opacity="0.3" stroke-width="0.5"/>
<line x1="426.83" y1="18.4199" x2="-77.8384" y2="18.4199" stroke="#0587F0" stroke-opacity="0.3" stroke-width="0.5"/>
<line x1="426.83" y1="27.1211" x2="-77.8384" y2="27.1211" stroke="#0587F0" stroke-opacity="0.3" stroke-width="0.5"/>
<line x1="426.83" y1="35.8223" x2="-77.8384" y2="35.8223" stroke="#0587F0" stroke-opacity="0.3" stroke-width="0.5"/>
<line x1="426.83" y1="44.5234" x2="-77.8384" y2="44.5234" stroke="#0587F0" stroke-opacity="0.3" stroke-width="0.5"/>
<line x1="426.83" y1="53.2246" x2="-77.8384" y2="53.2246" stroke="#0587F0" stroke-opacity="0.3" stroke-width="0.5"/>
<line x1="426.83" y1="61.9258" x2="-77.8384" y2="61.9258" stroke="#0587F0" stroke-opacity="0.3" stroke-width="0.5"/>
<line x1="426.83" y1="70.627" x2="-77.8384" y2="70.627" stroke="#0587F0" stroke-opacity="0.3" stroke-width="0.5"/>
<line x1="426.83" y1="79.3281" x2="-77.8384" y2="79.3281" stroke="#0587F0" stroke-opacity="0.3" stroke-width="0.5"/>
<line x1="426.83" y1="88.0293" x2="-77.8384" y2="88.0293" stroke="#0587F0" stroke-opacity="0.3" stroke-width="0.5"/>
<line x1="426.83" y1="96.7305" x2="-77.8384" y2="96.7305" stroke="#0587F0" stroke-opacity="0.3" stroke-width="0.5"/>
<line x1="426.83" y1="105.432" x2="-77.8384" y2="105.432" stroke="#0587F0" stroke-opacity="0.3" stroke-width="0.5"/>
<line x1="426.83" y1="114.133" x2="-77.8384" y2="114.133" stroke="#0587F0" stroke-opacity="0.3" stroke-width="0.5"/>
<line x1="426.83" y1="122.834" x2="-77.8384" y2="122.834" stroke="#0587F0" stroke-opacity="0.3" stroke-width="0.5"/>
<line x1="426.83" y1="131.535" x2="-77.8384" y2="131.535" stroke="#0587F0" stroke-opacity="0.3" stroke-width="0.5"/>
<line x1="426.83" y1="140.236" x2="-77.8384" y2="140.236" stroke="#0587F0" stroke-opacity="0.3" stroke-width="0.5"/>
<line x1="426.83" y1="148.938" x2="-77.8384" y2="148.938" stroke="#0587F0" stroke-opacity="0.3" stroke-width="0.5"/>
<line x1="426.83" y1="157.639" x2="-77.8384" y2="157.639" stroke="#0587F0" stroke-opacity="0.3" stroke-width="0.5"/>
<line x1="426.83" y1="1.01758" x2="-77.8384" y2="1.01758" stroke="#0587F0" stroke-opacity="0.3" stroke-width="0.5"/>
<line x1="426.83" y1="9.71875" x2="-77.8384" y2="9.71875" stroke="#0587F0" stroke-opacity="0.3" stroke-width="0.5"/>
<line x1="426.83" y1="166.34" x2="-77.8384" y2="166.34" stroke="#0587F0" stroke-opacity="0.3" stroke-width="0.5"/>
<line x1="426.83" y1="175.041" x2="-77.8384" y2="175.041" stroke="#0587F0" stroke-opacity="0.3" stroke-width="0.5"/>
<line x1="70.3325" y1="14.6895" x2="70.3325" y2="22.5205" stroke="#0587F0" stroke-width="0.5"/>
<line x1="74.4331" y1="18.4199" x2="66.6021" y2="18.4199" stroke="#0587F0" stroke-width="0.5"/>
<line x1="174.747" y1="14.6895" x2="174.747" y2="22.5205" stroke="#0587F0" stroke-width="0.5"/>
<line x1="178.847" y1="18.4199" x2="171.016" y2="18.4199" stroke="#0587F0" stroke-width="0.5"/>
<line x1="209.551" y1="14.6895" x2="209.551" y2="22.5205" stroke="#0587F0" stroke-width="0.5"/>
<line x1="213.652" y1="18.4199" x2="205.821" y2="18.4199" stroke="#0587F0" stroke-width="0.5"/>
<line x1="244.356" y1="14.6895" x2="244.356" y2="22.5205" stroke="#0587F0" stroke-width="0.5"/>
<line x1="248.457" y1="18.4199" x2="240.625" y2="18.4199" stroke="#0587F0" stroke-width="0.5"/>
<line x1="279.161" y1="14.6895" x2="279.161" y2="22.5205" stroke="#0587F0" stroke-width="0.5"/>
<line x1="283.261" y1="18.4199" x2="275.43" y2="18.4199" stroke="#0587F0" stroke-width="0.5"/>
<line x1="70.3325" y1="49.4941" x2="70.3325" y2="57.3252" stroke="#0587F0" stroke-width="0.5"/>
<line x1="74.4331" y1="53.2246" x2="66.6021" y2="53.2246" stroke="#0587F0" stroke-width="0.5"/>
<line x1="174.747" y1="49.4941" x2="174.747" y2="57.3252" stroke="#0587F0" stroke-width="0.5"/>
<line x1="178.847" y1="53.2246" x2="171.016" y2="53.2246" stroke="#0587F0" stroke-width="0.5"/>
<line x1="209.551" y1="49.4941" x2="209.551" y2="57.3252" stroke="#0587F0" stroke-width="0.5"/>
<line x1="213.652" y1="53.2246" x2="205.821" y2="53.2246" stroke="#0587F0" stroke-width="0.5"/>
<line x1="244.356" y1="49.4941" x2="244.356" y2="57.3252" stroke="#0587F0" stroke-width="0.5"/>
<line x1="248.457" y1="53.2246" x2="240.625" y2="53.2246" stroke="#0587F0" stroke-width="0.5"/>
<line x1="279.161" y1="49.4941" x2="279.161" y2="57.3252" stroke="#0587F0" stroke-width="0.5"/>
<line x1="283.261" y1="53.2246" x2="275.43" y2="53.2246" stroke="#0587F0" stroke-width="0.5"/>
<line x1="70.3325" y1="84.2988" x2="70.3325" y2="92.1299" stroke="#0587F0" stroke-width="0.5"/>
<line x1="74.4331" y1="88.0293" x2="66.6021" y2="88.0293" stroke="#0587F0" stroke-width="0.5"/>
<line x1="174.747" y1="84.2988" x2="174.747" y2="92.1299" stroke="#0587F0" stroke-width="0.5"/>
<line x1="178.847" y1="88.0293" x2="171.016" y2="88.0293" stroke="#0587F0" stroke-width="0.5"/>
<line x1="209.551" y1="84.2988" x2="209.551" y2="92.1299" stroke="#0587F0" stroke-width="0.5"/>
<line x1="213.652" y1="88.0293" x2="205.821" y2="88.0293" stroke="#0587F0" stroke-width="0.5"/>
<line x1="244.356" y1="84.2988" x2="244.356" y2="92.1299" stroke="#0587F0" stroke-width="0.5"/>
<line x1="248.457" y1="88.0293" x2="240.625" y2="88.0293" stroke="#0587F0" stroke-width="0.5"/>
<line x1="279.161" y1="84.2988" x2="279.161" y2="92.1299" stroke="#0587F0" stroke-width="0.5"/>
<line x1="283.261" y1="88.0293" x2="275.43" y2="88.0293" stroke="#0587F0" stroke-width="0.5"/>
<line x1="70.3325" y1="119.104" x2="70.3325" y2="126.935" stroke="#0587F0" stroke-width="0.5"/>
<line x1="74.4331" y1="122.834" x2="66.6021" y2="122.834" stroke="#0587F0" stroke-width="0.5"/>
<line x1="174.747" y1="119.104" x2="174.747" y2="126.935" stroke="#0587F0" stroke-width="0.5"/>
<line x1="178.847" y1="122.834" x2="171.016" y2="122.834" stroke="#0587F0" stroke-width="0.5"/>
<line x1="209.551" y1="119.104" x2="209.551" y2="126.935" stroke="#0587F0" stroke-width="0.5"/>
<line x1="213.652" y1="122.834" x2="205.821" y2="122.834" stroke="#0587F0" stroke-width="0.5"/>
<line x1="244.356" y1="119.104" x2="244.356" y2="126.935" stroke="#0587F0" stroke-width="0.5"/>
<line x1="248.457" y1="122.834" x2="240.625" y2="122.834" stroke="#0587F0" stroke-width="0.5"/>
<line x1="279.161" y1="119.104" x2="279.161" y2="126.935" stroke="#0587F0" stroke-width="0.5"/>
<line x1="283.261" y1="122.834" x2="275.43" y2="122.834" stroke="#0587F0" stroke-width="0.5"/>
<line x1="70.3325" y1="153.908" x2="70.3325" y2="161.739" stroke="#0587F0" stroke-width="0.5"/>
<line x1="74.4331" y1="157.639" x2="66.6021" y2="157.639" stroke="#0587F0" stroke-width="0.5"/>
<line x1="174.747" y1="153.908" x2="174.747" y2="161.739" stroke="#0587F0" stroke-width="0.5"/>
<line x1="178.847" y1="157.639" x2="171.016" y2="157.639" stroke="#0587F0" stroke-width="0.5"/>
<line x1="209.551" y1="153.908" x2="209.551" y2="161.739" stroke="#0587F0" stroke-width="0.5"/>
<line x1="213.652" y1="157.639" x2="205.821" y2="157.639" stroke="#0587F0" stroke-width="0.5"/>
<line x1="244.356" y1="153.908" x2="244.356" y2="161.739" stroke="#0587F0" stroke-width="0.5"/>
<line x1="248.457" y1="157.639" x2="240.625" y2="157.639" stroke="#0587F0" stroke-width="0.5"/>
<line x1="279.161" y1="153.908" x2="279.161" y2="161.739" stroke="#0587F0" stroke-width="0.5"/>
<line x1="283.261" y1="157.639" x2="275.43" y2="157.639" stroke="#0587F0" stroke-width="0.5"/>
<line x1="139.942" y1="14.6895" x2="139.942" y2="22.5205" stroke="#0587F0" stroke-width="0.5"/>
<line x1="144.042" y1="18.4199" x2="136.211" y2="18.4199" stroke="#0587F0" stroke-width="0.5"/>
<line x1="139.942" y1="49.4941" x2="139.942" y2="57.3252" stroke="#0587F0" stroke-width="0.5"/>
<line x1="144.042" y1="53.2246" x2="136.211" y2="53.2246" stroke="#0587F0" stroke-width="0.5"/>
<line x1="139.942" y1="84.2988" x2="139.942" y2="92.1299" stroke="#0587F0" stroke-width="0.5"/>
<line x1="144.042" y1="88.0293" x2="136.211" y2="88.0293" stroke="#0587F0" stroke-width="0.5"/>
<line x1="139.942" y1="119.104" x2="139.942" y2="126.935" stroke="#0587F0" stroke-width="0.5"/>
<line x1="144.042" y1="122.834" x2="136.211" y2="122.834" stroke="#0587F0" stroke-width="0.5"/>
<line x1="139.942" y1="153.908" x2="139.942" y2="161.739" stroke="#0587F0" stroke-width="0.5"/>
<line x1="144.042" y1="157.639" x2="136.211" y2="157.639" stroke="#0587F0" stroke-width="0.5"/>
<line x1="105.137" y1="14.6895" x2="105.137" y2="22.5205" stroke="#0587F0" stroke-width="0.5"/>
<line x1="109.238" y1="18.4199" x2="101.407" y2="18.4199" stroke="#0587F0" stroke-width="0.5"/>
<line x1="105.137" y1="49.4941" x2="105.137" y2="57.3252" stroke="#0587F0" stroke-width="0.5"/>
<line x1="109.238" y1="53.2246" x2="101.407" y2="53.2246" stroke="#0587F0" stroke-width="0.5"/>
<line x1="105.137" y1="84.2988" x2="105.137" y2="92.1299" stroke="#0587F0" stroke-width="0.5"/>
<line x1="109.238" y1="88.0293" x2="101.407" y2="88.0293" stroke="#0587F0" stroke-width="0.5"/>
<line x1="105.137" y1="119.104" x2="105.137" y2="126.935" stroke="#0587F0" stroke-width="0.5"/>
<line x1="109.238" y1="122.834" x2="101.407" y2="122.834" stroke="#0587F0" stroke-width="0.5"/>
<line x1="105.137" y1="153.908" x2="105.137" y2="161.739" stroke="#0587F0" stroke-width="0.5"/>
<line x1="109.238" y1="157.639" x2="101.407" y2="157.639" stroke="#0587F0" stroke-width="0.5"/>
<line x1="52.9292" y1="-96.6855" x2="52.9292" y2="306.179" stroke="#0587F0" stroke-opacity="0.3" stroke-width="0.5"/>
<line x1="61.6304" y1="-96.6855" x2="61.6304" y2="306.179" stroke="#0587F0" stroke-opacity="0.3" stroke-width="0.5"/>
</g>
</g>
<g filter="url(#filter0_d_704_3193)">
<rect x="143" y="56" width="64" height="64" rx="16" fill="url(#paint1_linear_704_3193)"/>
<path fill-rule="evenodd" clip-rule="evenodd" d="M174.571 71.6334C174.856 71.5923 175.145 71.5923 175.429 71.6334C175.757 71.6808 176.063 71.796 176.305 71.8876L176.37 71.9121L184.608 75.0013C185.535 75.3473 186.349 75.6511 186.976 76.2035C187.524 76.6867 187.946 77.2961 188.206 77.9791C188.503 78.7599 188.502 79.6286 188.501 80.6177L188.5 88.0005C188.5 92.2405 186.194 95.7753 183.702 98.3722C181.192 100.986 178.321 102.833 176.803 103.718L176.742 103.755C176.465 103.917 176.105 104.128 175.629 104.23C175.24 104.314 174.761 104.314 174.371 104.23C173.896 104.128 173.536 103.917 173.259 103.755L173.198 103.718C171.679 102.833 168.808 100.986 166.299 98.3722C163.806 95.7753 161.5 92.2405 161.5 88.0005L161.5 80.6177C161.499 79.6286 161.498 78.7599 161.795 77.9791C162.055 77.2961 162.477 76.6867 163.025 76.2035C163.652 75.6512 164.466 75.3473 165.392 75.0013L173.631 71.9121L173.696 71.8876C173.938 71.796 174.243 71.6808 174.571 71.6334ZM181.311 84.5614C181.897 83.9756 181.897 83.0259 181.311 82.4401C180.725 81.8543 179.775 81.8543 179.19 82.4401L173.5 88.1294L171.561 86.1901C170.975 85.6043 170.025 85.6043 169.44 86.1901C168.854 86.7759 168.854 87.7256 169.44 88.3114L172.44 91.3114C173.025 91.8972 173.975 91.8972 174.561 91.3114L181.311 84.5614Z" fill="#0587F0"/>
</g>
</g>
<defs>
<filter id="filter0_d_704_3193" x="129" y="46" width="92" height="92" filterUnits="userSpaceOnUse" color-interpolation-filters="sRGB">
<feFlood flood-opacity="0" result="BackgroundImageFix"/>
<feColorMatrix in="SourceAlpha" type="matrix" values="0 0 0 0 0 0 0 0 0 0 0 0 0 0 0 0 0 0 127 0" result="hardAlpha"/>
<feOffset dy="4"/>
<feGaussianBlur stdDeviation="7"/>
<feComposite in2="hardAlpha" operator="out"/>
<feColorMatrix type="matrix" values="0 0 0 0 0 0 0 0 0 0.447059 0 0 0 0 0.870588 0 0 0 0.3 0"/>
<feBlend mode="normal" in2="BackgroundImageFix" result="effect1_dropShadow_704_3193"/>
<feBlend mode="normal" in="SourceGraphic" in2="effect1_dropShadow_704_3193" result="shape"/>
</filter>
<radialGradient id="paint0_radial_704_3193" cx="0" cy="0" r="1" gradientUnits="userSpaceOnUse" gradientTransform="translate(175.001 105) rotate(90) scale(129.375)">
<stop stop-color="#505050"/>
<stop offset="1" stop-color="#B6B6B6" stop-opacity="0"/>
</radialGradient>
<linearGradient id="paint1_linear_704_3193" x1="175" y1="56" x2="175" y2="120" gradientUnits="userSpaceOnUse">
<stop stop-color="white"/>
<stop offset="1" stop-color="#E6F4FE"/>
</linearGradient>
<clipPath id="clip0_704_3193">
<rect width="350" height="175" fill="white"/>
</clipPath>
</defs>
</svg>
